<svg version="1.1" id="Layer_1" xmlns="http://www.w3.org/2000/svg" xmlns:xlink="http://www.w3.org/1999/xlink" x="0px" y="0px"
	 width="100%" viewBox="0 0 946 278" enable-background="new 0 0 946 278" xml:space="preserve">
<path fill="#FFFFFF" opacity="1.000000" stroke="none" 
	d="
M787.000000,279.000000 
	C736.645752,279.000000 686.291565,279.000000 635.468628,278.531342 
	C635.000000,187.142258 635.000000,96.221825 635.000000,5.000000 
	C637.121338,5.000000 638.755005,5.000000 640.388733,5.000000 
	C678.213745,5.000000 716.043030,4.682029 753.861389,5.183749 
	C766.023682,5.345101 778.454102,6.435327 790.238708,9.272873 
	C811.062256,14.286801 827.686340,26.004574 837.264160,45.826584 
	C845.535278,62.944324 846.378540,81.003777 841.289246,99.105873 
	C837.643005,112.075287 831.088806,123.607712 819.768127,131.634598 
	C815.397217,134.733765 810.574219,137.195251 806.150696,139.831955 
	C811.829712,142.759644 817.548279,145.489502 823.057434,148.591400 
	C836.171143,155.975037 845.743652,166.322556 850.584473,180.931900 
	C853.408142,189.453598 853.117615,198.087311 852.954590,206.751297 
	C852.648743,223.011780 846.966003,237.480377 836.574097,249.785294 
	C823.987244,264.689240 807.628418,273.458923 788.470703,277.080078 
	C787.880615,277.191620 787.485840,278.336731 787.000000,279.000000 
M686.000000,165.599731 
	C686.000000,188.664337 686.000000,211.728943 686.000000,235.000000 
	C711.526794,235.000000 736.472107,234.957794 761.417175,235.016922 
	C774.886597,235.048843 786.087769,230.479492 794.151184,219.340851 
	C806.127625,202.796844 803.244080,178.777222 784.153137,166.605621 
	C776.385620,161.653427 767.874207,159.934189 758.785339,159.968826 
	C734.686096,160.060715 710.586182,160.000000 686.000000,160.000000 
	C686.000000,161.740387 686.000000,163.181519 686.000000,165.599731 
M714.500000,116.000000 
	C723.828369,116.000000 733.159058,116.128448 742.484436,115.961060 
	C750.555481,115.816185 758.792114,116.267426 766.654175,114.819008 
	C786.009460,111.253242 796.741821,94.294334 792.475830,75.181091 
	C788.515503,57.437042 774.846558,49.473209 758.434326,49.121624 
	C735.790100,48.636543 713.127686,48.995747 690.473022,49.010075 
	C689.039978,49.010979 687.607056,49.156551 686.289612,49.228516 
	C686.289612,71.660683 686.289612,93.724876 686.289612,116.000000 
	C695.551758,116.000000 704.525879,116.000000 714.500000,116.000000 
z"/>
<path fill="#000000" opacity="1.000000" stroke="none" 
	d="
M787.468628,279.000000 
	C787.485840,278.336731 787.880615,277.191620 788.470703,277.080078 
	C807.628418,273.458923 823.987244,264.689240 836.574097,249.785294 
	C846.966003,237.480377 852.648743,223.011780 852.954590,206.751297 
	C853.117615,198.087311 853.408142,189.453598 850.584473,180.931900 
	C845.743652,166.322556 836.171143,155.975037 823.057434,148.591400 
	C817.548279,145.489502 811.829712,142.759644 806.150696,139.831955 
	C810.574219,137.195251 815.397217,134.733765 819.768127,131.634598 
	C831.088806,123.607712 837.643005,112.075287 841.289246,99.105873 
	C846.378540,81.003777 845.535278,62.944324 837.264160,45.826584 
	C827.686340,26.004574 811.062256,14.286801 790.238708,9.272873 
	C778.454102,6.435327 766.023682,5.345101 753.861389,5.183749 
	C716.043030,4.682029 678.213745,5.000000 640.388733,5.000000 
	C638.755005,5.000000 637.121338,5.000000 635.000000,5.000000 
	C635.000000,96.221825 635.000000,187.142258 635.000000,278.531342 
	C628.645569,279.000000 622.291199,279.000000 615.380249,278.674866 
	C597.251892,260.883942 579.679993,243.418091 562.063049,225.635498 
	C562.048828,224.894348 562.079590,224.469986 562.407349,223.921448 
	C563.168152,222.883652 563.631897,221.970016 564.056641,221.033173 
	C564.017639,221.009964 564.059143,221.090698 564.373657,220.950806 
	C565.830383,218.887802 566.972717,216.964706 568.387207,214.925888 
	C568.787109,214.244827 568.914734,213.679489 569.355469,212.971558 
	C570.723450,210.885529 571.778320,208.942078 572.991638,206.672211 
	C582.328064,189.881058 587.273743,171.961884 588.727234,153.429062 
	C589.868225,138.880402 589.265503,124.218590 586.207275,109.610878 
	C579.339722,76.807861 562.825012,50.062759 536.753052,29.563351 
	C518.622498,15.307986 497.716492,6.365175 474.683960,2.913143 
	C474.041504,2.816859 473.557739,1.661521 473.000000,1.000007 
	C631.000000,1.000000 789.000000,1.000000 947.000000,1.000000 
	C947.000000,93.666656 947.000000,186.333313 947.000000,279.000000 
	C946.000000,279.000000 945.000000,279.000000 943.500000,278.531342 
	C943.000000,213.509583 943.000000,148.956482 943.000000,84.356895 
	C925.763977,84.356895 908.919678,84.356895 892.000000,84.356895 
	C892.000000,149.475845 892.000000,214.237915 892.000000,279.000000 
	C857.312439,279.000000 822.624878,279.000000 787.468628,279.000000 
M944.013123,42.328506 
	C943.504761,41.651024 942.996399,40.973537 942.751648,39.596851 
	C939.221191,36.066254 935.690674,32.535656 931.868896,28.388309 
	C930.593079,27.553778 929.317261,26.719246 927.773987,25.279230 
	C922.019104,19.525646 916.403809,13.620378 910.422241,8.113009 
	C908.678650,6.507680 905.902710,5.214978 903.578125,5.178816 
	C886.799316,4.917788 870.014954,5.009088 853.232300,5.018500 
	C852.185730,5.019087 851.139343,5.271173 849.391235,5.496808 
	C850.744446,6.759617 851.548584,7.510029 851.538879,8.542592 
	C852.081848,9.925126 852.259521,11.674651 853.223633,12.634022 
	C864.079529,23.437252 875.056213,34.119102 886.928406,44.973083 
	C904.514038,44.982021 922.100098,45.039349 939.684753,44.913086 
	C941.180176,44.902344 942.666809,43.666878 944.013123,42.328506 
z"/>
<path fill="#F58220" opacity="1.000000" stroke="none" 
	d="
M472.531311,1.000007 
	C473.557739,1.661521 474.041504,2.816859 474.683960,2.913143 
	C497.716492,6.365175 518.622498,15.307986 536.753052,29.563351 
	C562.825012,50.062759 579.339722,76.807861 586.207275,109.610878 
	C589.265503,124.218590 589.868225,138.880402 588.727234,153.429062 
	C587.273743,171.961884 582.328064,189.881058 572.620728,206.683502 
	C571.075012,209.052185 570.058716,211.083160 569.042358,213.114136 
	C568.914734,213.679489 568.787109,214.244827 568.022095,214.948868 
	C566.276184,217.088608 565.167664,219.089645 564.059143,221.090698 
	C564.059143,221.090698 564.017639,221.009964 563.720520,221.044495 
	C562.985718,222.067871 562.548035,223.056747 562.110352,224.045609 
	C562.079590,224.469986 562.048828,224.894348 561.802917,225.815857 
	C562.430664,227.747360 563.019653,229.433594 564.154846,230.577927 
	C578.634033,245.173553 593.211182,259.671967 607.696289,274.261749 
	C609.032593,275.607727 609.909668,277.409760 611.000000,279.000000 
	C592.645752,279.000000 574.291565,279.000000 555.434875,278.655334 
	C553.695557,276.781128 552.585022,275.125488 551.203064,273.740692 
	C526.035339,248.521591 500.822479,223.347504 475.673706,198.109528 
	C474.212006,196.642654 473.213867,194.713837 472.375000,193.000000 
	C473.500000,193.000000 474.250000,193.000000 475.090515,193.396790 
	C475.680664,194.168594 476.178955,194.869324 476.679993,194.871292 
	C491.603516,194.929977 506.528259,195.007584 521.450073,194.839478 
	C524.168762,194.808838 526.757385,193.624634 525.984131,189.525253 
	C526.997986,187.493637 528.155884,185.899246 528.945862,184.139648 
	C537.791382,164.436493 541.055420,144.099152 537.141846,122.563530 
	C533.971069,105.114990 527.228027,89.447052 515.585754,76.233902 
	C497.936920,56.203602 474.976990,46.843525 448.678436,46.191013 
	C436.639160,45.892296 424.714417,48.291992 413.366913,52.971836 
	C392.132690,61.729065 376.375336,76.470245 366.641144,97.055893 
	C358.705261,113.838615 355.749023,131.607666 357.791351,150.458160 
	C359.994995,170.797501 367.199066,188.679321 380.524628,203.890045 
	C398.149750,224.008530 421.196930,232.931946 447.487579,233.876984 
	C453.629517,234.097763 459.826874,232.777802 466.004333,232.521210 
	C467.062988,234.473404 467.889435,236.293930 469.205841,237.632645 
	C477.659180,246.229080 486.252411,254.687897 494.711487,263.278778 
	C496.037872,264.625824 496.915100,266.415161 497.790344,268.264404 
	C495.394531,269.963745 493.208374,271.398651 490.780884,272.912476 
	C490.375000,273.031189 490.210449,273.070923 489.802551,272.812866 
	C485.833679,272.067902 482.078949,271.536560 479.599121,275.915710 
	C477.492096,276.334564 475.731293,276.512054 474.102844,277.073517 
	C473.278503,277.357758 472.693329,278.335724 472.000000,279.000000 
	C455.979095,279.000000 439.958221,279.000000 423.694275,278.615662 
	C422.779083,277.828735 422.142944,277.159454 421.429443,277.063141 
	C408.256561,275.285126 395.775177,271.149475 383.913086,265.355377 
	C366.828613,257.010376 351.982849,245.820786 339.494720,231.196106 
	C320.276459,208.689850 309.886810,182.609299 307.221405,153.571014 
	C305.792114,137.999176 306.218842,122.125374 310.171875,106.805695 
	C317.248383,79.381401 330.352722,55.470356 351.930298,36.472664 
	C372.274506,18.560921 395.472168,7.037947 422.311798,2.913453 
	C422.957306,2.814257 423.440887,1.661407 424.000000,0.999999 
	C440.020905,1.000000 456.041779,1.000000 472.531311,1.000007 
z"/>
<path fill="#F58220" opacity="1.000000" stroke="none" 
	d="
M118.000000,0.999999 
	C134.020889,1.000000 150.041794,1.000000 166.306122,1.384545 
	C169.309830,2.511091 172.047791,3.352058 174.833786,3.979920 
	C205.802353,10.959126 231.856339,26.023972 252.189911,50.659950 
	C270.744171,73.140114 280.588867,99.185165 282.846588,127.951729 
	C284.345642,147.051056 282.795013,166.170898 276.688232,184.483780 
	C268.339905,209.518661 254.528214,230.966675 233.799850,247.815063 
	C214.635483,263.392212 193.040680,273.172516 168.703430,277.084839 
	C168.049896,277.189941 167.564041,278.338196 167.000000,279.000000 
	C150.645767,279.000000 134.291550,279.000000 117.704437,278.623596 
	C115.210007,277.509583 112.995720,276.538574 110.679787,276.069641 
	C79.132072,269.681641 52.861301,254.465363 32.137600,229.693649 
	C16.504734,211.007187 6.846400,189.685272 2.914847,165.686722 
	C2.808461,165.037338 1.661642,164.558411 1.000002,164.000000 
	C1.000000,148.312439 1.000000,132.624878 1.376464,116.704117 
	C2.146710,115.966797 2.749185,115.519104 2.903054,114.950096 
	C5.311654,106.043205 6.973224,96.865692 10.160318,88.251259 
	C18.507702,65.689018 32.195309,46.529408 51.057594,31.708902 
	C70.209976,16.660463 91.769409,6.203158 116.314339,2.911517 
	C116.950241,2.826239 117.441360,1.661383 118.000000,0.999999 
M148.730103,233.011230 
	C152.821106,232.656265 157.035904,232.814438 160.982758,231.862076 
	C184.397888,226.212082 203.836594,214.422577 216.993896,193.766174 
	C230.907928,171.921738 235.656967,148.153366 231.044907,122.549751 
	C226.957306,99.857651 216.880295,80.752571 198.683502,66.101921 
	C177.968964,49.424194 154.138947,43.590107 128.393936,47.263367 
	C104.950821,50.608192 85.321671,61.775608 70.533791,80.878311 
	C57.990376,97.081665 52.232365,115.634987 51.093353,135.703552 
	C50.161461,152.122849 53.407589,168.021927 60.514076,182.825439 
	C66.371643,195.027328 74.553276,205.581100 85.331245,214.143967 
	C97.908546,224.136337 112.160324,230.140839 127.781769,232.702774 
	C134.303482,233.772324 141.125946,233.007996 148.730103,233.011230 
z"/>
<path fill="#000000" opacity="1.000000" stroke="none" 
	d="
M465.998718,232.166718 
	C459.826874,232.777802 453.629517,234.097763 447.487579,233.876984 
	C421.196930,232.931946 398.149750,224.008530 380.524628,203.890045 
	C367.199066,188.679321 359.994995,170.797501 357.791351,150.458160 
	C355.749023,131.607666 358.705261,113.838615 366.641144,97.055893 
	C376.375336,76.470245 392.132690,61.729065 413.366913,52.971836 
	C424.714417,48.291992 436.639160,45.892296 448.678436,46.191013 
	C474.976990,46.843525 497.936920,56.203602 515.585754,76.233902 
	C527.228027,89.447052 533.971069,105.114990 537.141846,122.563530 
	C541.055420,144.099152 537.791382,164.436493 528.945862,184.139648 
	C528.155884,185.899246 526.997986,187.493637 525.707825,189.635941 
	C524.936218,190.460327 524.467712,190.813522 523.535461,191.095490 
	C506.645294,191.016174 490.218506,190.961807 473.793121,191.088226 
	C472.483978,191.098297 471.184448,192.358337 469.931885,193.402512 
	C471.009216,195.362854 471.788818,197.203552 473.097443,198.517197 
	C498.515991,224.033310 524.005737,249.478516 549.432007,274.987000 
	C550.527405,276.085968 551.154663,277.651703 552.000000,279.000000 
	C525.645752,279.000000 499.291534,279.000000 472.468658,279.000000 
	C472.693329,278.335724 473.278503,277.357758 474.102844,277.073517 
	C475.731293,276.512054 477.492096,276.334564 479.994263,275.985565 
	C483.875519,275.018768 486.960693,274.064697 490.045898,273.110657 
	C490.210449,273.070923 490.375000,273.031189 491.166626,272.982422 
	C494.512573,271.986206 497.253662,271.052155 499.918640,269.936157 
	C500.210388,269.813995 500.064117,268.645935 500.063416,267.606506 
	C499.540955,266.218689 499.324127,264.937012 498.573914,264.193634 
	C487.757599,253.475540 476.869568,242.829819 465.998718,232.166718 
z"/>
<path fill="#000000" opacity="1.000000" stroke="none" 
	d="
M167.468658,279.000000 
	C167.564041,278.338196 168.049896,277.189941 168.703430,277.084839 
	C193.040680,273.172516 214.635483,263.392212 233.799850,247.815063 
	C254.528214,230.966675 268.339905,209.518661 276.688232,184.483780 
	C282.795013,166.170898 284.345642,147.051056 282.846588,127.951729 
	C280.588867,99.185165 270.744171,73.140114 252.189911,50.659950 
	C231.856339,26.023972 205.802353,10.959126 174.833786,3.979920 
	C172.047791,3.352058 169.309830,2.511091 166.774780,1.384545 
	C252.354233,1.000000 337.708466,1.000000 423.531342,0.999999 
	C423.440887,1.661407 422.957306,2.814257 422.311798,2.913453 
	C395.472168,7.037947 372.274506,18.560921 351.930298,36.472664 
	C330.352722,55.470356 317.248383,79.381401 310.171875,106.805695 
	C306.218842,122.125374 305.792114,137.999176 307.221405,153.571014 
	C309.886810,182.609299 320.276459,208.689850 339.494720,231.196106 
	C351.982849,245.820786 366.828613,257.010376 383.913086,265.355377 
	C395.775177,271.149475 408.256561,275.285126 421.429443,277.063141 
	C422.142944,277.159454 422.779083,277.828735 423.225586,278.615662 
	C337.979095,279.000000 252.958206,279.000000 167.468658,279.000000 
z"/>
<path fill="#FFFFFF" opacity="1.000000" stroke="none" 
	d="
M892.468628,279.000000 
	C892.000000,214.237915 892.000000,149.475845 892.000000,84.356895 
	C908.919678,84.356895 925.763977,84.356895 943.000000,84.356895 
	C943.000000,148.956482 943.000000,213.509583 943.000000,278.531342 
	C926.312439,279.000000 909.624878,279.000000 892.468628,279.000000 
z"/>
<path fill="#000000" opacity="1.000000" stroke="none" 
	d="
M117.531342,0.999999 
	C117.441360,1.661383 116.950241,2.826239 116.314339,2.911517 
	C91.769409,6.203158 70.209976,16.660463 51.057594,31.708902 
	C32.195309,46.529408 18.507702,65.689018 10.160318,88.251259 
	C6.973224,96.865692 5.311654,106.043205 2.903054,114.950096 
	C2.749185,115.519104 2.146710,115.966797 1.376464,116.235458 
	C1.000000,77.739082 1.000000,39.478161 1.000000,1.000000 
	C39.687290,1.000000 78.374985,1.000000 117.531342,0.999999 
z"/>
<path fill="#000000" opacity="1.000000" stroke="none" 
	d="
M1.000002,164.468658 
	C1.661642,164.558411 2.808461,165.037338 2.914847,165.686722 
	C6.846400,189.685272 16.504734,211.007187 32.137600,229.693649 
	C52.861301,254.465363 79.132072,269.681641 110.679787,276.069641 
	C112.995720,276.538574 115.210007,277.509583 117.235779,278.623596 
	C78.406693,279.000000 39.813385,279.000000 1.000000,279.000000 
	C1.000000,240.979385 1.000000,202.958359 1.000002,164.468658 
z"/>
<path fill="#F58220" opacity="1.000000" stroke="none" 
	d="
M552.375000,279.000000 
	C551.154663,277.651703 550.527405,276.085968 549.432007,274.987000 
	C524.005737,249.478516 498.515991,224.033310 473.097443,198.517197 
	C471.788818,197.203552 471.009216,195.362854 470.285065,193.391800 
	C471.057861,193.010712 471.528931,193.005356 472.000000,193.000000 
	C473.213867,194.713837 474.212006,196.642654 475.673706,198.109528 
	C500.822479,223.347504 526.035339,248.521591 551.203064,273.740692 
	C552.585022,275.125488 553.695557,276.781128 554.966187,278.655334 
	C554.250000,279.000000 553.500000,279.000000 552.375000,279.000000 
z"/>
<path fill="#F58220" opacity="1.000000" stroke="none" 
	d="
M611.399963,279.000000 
	C609.909668,277.409760 609.032593,275.607727 607.696289,274.261749 
	C593.211182,259.671967 578.634033,245.173553 564.154846,230.577927 
	C563.019653,229.433594 562.430664,227.747360 561.847900,226.132629 
	C579.679993,243.418091 597.251892,260.883942 614.911865,278.674866 
	C613.933289,279.000000 612.866638,279.000000 611.399963,279.000000 
z"/>
<path fill="#000000" opacity="1.000000" stroke="none" 
	d="
M686.000000,165.111191 
	C686.000000,163.181519 686.000000,161.740387 686.000000,160.000000 
	C710.586182,160.000000 734.686096,160.060715 758.785339,159.968826 
	C767.874207,159.934189 776.385620,161.653427 784.153137,166.605621 
	C803.244080,178.777222 806.127625,202.796844 794.151184,219.340851 
	C786.087769,230.479492 774.886597,235.048843 761.417175,235.016922 
	C736.472107,234.957794 711.526794,235.000000 686.000000,235.000000 
	C686.000000,211.728943 686.000000,188.664337 686.000000,165.111191 
z"/>
<path fill="#000000" opacity="1.000000" stroke="none" 
	d="
M714.000000,116.000000 
	C704.525879,116.000000 695.551758,116.000000 686.289612,116.000000 
	C686.289612,93.724876 686.289612,71.660683 686.289612,49.228516 
	C687.607056,49.156551 689.039978,49.010979 690.473022,49.010075 
	C713.127686,48.995747 735.790100,48.636543 758.434326,49.121624 
	C774.846558,49.473209 788.515503,57.437042 792.475830,75.181091 
	C796.741821,94.294334 786.009460,111.253242 766.654175,114.819008 
	C758.792114,116.267426 750.555481,115.816185 742.484436,115.961060 
	C733.159058,116.128448 723.828369,116.000000 714.000000,116.000000 
z"/>
<path fill="#00ADBB" opacity="1.000000" stroke="none" 
	d="
M932.160156,29.005058 
	C935.690674,32.535656 939.221191,36.066254 942.458130,40.381821 
	C942.109802,41.777863 942.054932,42.388935 941.576904,42.990120 
	C939.701355,42.659966 938.244446,42.042828 936.797241,42.064724 
	C919.864014,42.320900 902.932190,42.673138 885.855591,42.700417 
	C883.985535,40.611904 882.270691,38.812344 880.532227,37.035847 
	C871.142273,27.440910 861.746521,17.851624 852.352783,8.260426 
	C851.548584,7.510029 850.744446,6.759617 849.391235,5.496808 
	C851.139343,5.271173 852.185730,5.019087 853.232300,5.018500 
	C870.014954,5.009088 886.799316,4.917788 903.578125,5.178816 
	C905.902710,5.214978 908.678650,6.507680 910.422241,8.113009 
	C916.403809,13.620378 922.019104,19.525646 927.905151,25.979435 
	C929.411011,27.454779 930.785583,28.229918 932.160156,29.005058 
z"/>
<path fill="#00ADBB" opacity="1.000000" stroke="none" 
	d="
M886.000000,43.000000 
	C902.932190,42.673138 919.864014,42.320900 936.797241,42.064724 
	C938.244446,42.042828 939.701355,42.659966 941.936279,42.990150 
	C943.198364,43.000164 943.677917,43.000263 944.157532,43.000366 
	C942.666809,43.666878 941.180176,44.902344 939.684753,44.913086 
	C922.100098,45.039349 904.514038,44.982021 886.464233,44.597740 
	C886.000000,43.814934 886.000000,43.407467 886.000000,43.000000 
z"/>
<path fill="#00ADBB" opacity="1.000000" stroke="none" 
	d="
M885.855591,42.700417 
	C886.000000,43.407467 886.000000,43.814934 886.000244,44.527985 
	C875.056213,34.119102 864.079529,23.437252 853.223633,12.634022 
	C852.259521,11.674651 852.081848,9.925126 851.945801,8.401501 
	C861.746521,17.851624 871.142273,27.440910 880.532227,37.035847 
	C882.270691,38.812344 883.985535,40.611904 885.855591,42.700417 
z"/>
<path fill="#F58220" opacity="1.000000" stroke="none" 
	d="
M569.355469,212.971558 
	C570.058716,211.083160 571.075012,209.052185 572.462280,207.009918 
	C571.778320,208.942078 570.723450,210.885529 569.355469,212.971558 
z"/>
<path fill="#F58220" opacity="1.000000" stroke="none" 
	d="
M564.373657,220.950790 
	C565.167664,219.089645 566.276184,217.088608 567.749878,215.064590 
	C566.972717,216.964706 565.830383,218.887802 564.373657,220.950790 
z"/>
<path fill="#00ADBC" opacity="1.000000" stroke="none" 
	d="
M932.014526,28.696682 
	C930.785583,28.229918 929.411011,27.454779 928.038940,26.282175 
	C929.317261,26.719246 930.593079,27.553778 932.014526,28.696682 
z"/>
<path fill="#F58220" opacity="1.000000" stroke="none" 
	d="
M562.407349,223.921448 
	C562.548035,223.056747 562.985718,222.067871 563.759521,221.067688 
	C563.631897,221.970016 563.168152,222.883652 562.407349,223.921448 
z"/>
<path fill="#00ADBC" opacity="1.000000" stroke="none" 
	d="
M944.085327,42.664436 
	C943.677917,43.000263 943.198364,43.000164 942.359375,43.000031 
	C942.054932,42.388935 942.109802,41.777863 942.326355,40.731422 
	C942.996399,40.973537 943.504761,41.651024 944.085327,42.664436 
z"/>
<path fill="#F48220" opacity="1.000000" stroke="none" 
	d="
M472.375000,193.000000 
	C471.528931,193.005356 471.057861,193.010712 470.233643,193.026779 
	C471.184448,192.358337 472.483978,191.098297 473.793121,191.088226 
	C490.218506,190.961807 506.645294,191.016174 523.428467,191.478302 
	C522.099304,192.288254 520.415161,192.943573 518.727417,192.953018 
	C504.151947,193.034668 489.575897,193.000000 475.000000,193.000000 
	C474.250000,193.000000 473.500000,193.000000 472.375000,193.000000 
z"/>
<path fill="#F58220" opacity="1.000000" stroke="none" 
	d="
M475.090515,193.396790 
	C489.575897,193.000000 504.151947,193.034668 518.727417,192.953018 
	C520.415161,192.943573 522.099304,192.288254 523.892212,191.549545 
	C524.467712,190.813522 524.936218,190.460327 525.681030,189.996460 
	C526.757385,193.624634 524.168762,194.808838 521.450073,194.839478 
	C506.528259,195.007584 491.603516,194.929977 476.679993,194.871292 
	C476.178955,194.869324 475.680664,194.168594 475.090515,193.396790 
z"/>
<path fill="#F58220" opacity="1.000000" stroke="none" 
	d="
M466.004333,232.521210 
	C476.869568,242.829819 487.757599,253.475540 498.573914,264.193634 
	C499.324127,264.937012 499.540955,266.218689 499.709991,267.617096 
	C498.942780,267.989441 498.471405,267.994720 498.000000,268.000000 
	C496.915100,266.415161 496.037872,264.625824 494.711487,263.278778 
	C486.252411,254.687897 477.659180,246.229080 469.205841,237.632645 
	C467.889435,236.293930 467.062988,234.473404 466.004333,232.521210 
z"/>
<path fill="#F58220" opacity="1.000000" stroke="none" 
	d="
M489.802551,272.812866 
	C486.960693,274.064697 483.875519,275.018768 480.395203,275.903015 
	C482.078949,271.536560 485.833679,272.067902 489.802551,272.812866 
z"/>
<path fill="#F58220" opacity="1.000000" stroke="none" 
	d="
M497.790344,268.264404 
	C498.471405,267.994720 498.942780,267.989441 499.767578,267.973572 
	C500.064117,268.645935 500.210388,269.813995 499.918640,269.936157 
	C497.253662,271.052155 494.512573,271.986206 491.407928,272.903442 
	C493.208374,271.398651 495.394531,269.963745 497.790344,268.264404 
z"/>
<path fill="#000000" opacity="1.000000" stroke="none" 
	d="
M148.270874,233.044373 
	C141.125946,233.007996 134.303482,233.772324 127.781769,232.702774 
	C112.160324,230.140839 97.908546,224.136337 85.331245,214.143967 
	C74.553276,205.581100 66.371643,195.027328 60.514076,182.825439 
	C53.407589,168.021927 50.161461,152.122849 51.093353,135.703552 
	C52.232365,115.634987 57.990376,97.081665 70.533791,80.878311 
	C85.321671,61.775608 104.950821,50.608192 128.393936,47.263367 
	C154.138947,43.590107 177.968964,49.424194 198.683502,66.101921 
	C216.880295,80.752571 226.957306,99.857651 231.044907,122.549751 
	C235.656967,148.153366 230.907928,171.921738 216.993896,193.766174 
	C203.836594,214.422577 184.397888,226.212082 160.982758,231.862076 
	C157.035904,232.814438 152.821106,232.656265 148.270874,233.044373 
z"/>
</svg>